<?xml version="1.0" encoding="UTF-8" standalone="no"?>
<svg
   viewBox="0 0 24 24"
   version="1.1"
   id="svg1"
   sodipodi:docname="volume-up.svg"
   inkscape:version="1.3 (0e150ed6c4, 2023-07-21)"
   xmlns:inkscape="http://www.inkscape.org/namespaces/inkscape"
   xmlns:sodipodi="http://sodipodi.sourceforge.net/DTD/sodipodi-0.dtd"
   xmlns="http://www.w3.org/2000/svg"
   xmlns:svg="http://www.w3.org/2000/svg">
  <defs
     id="defs1" />
  <sodipodi:namedview
     id="namedview1"
     pagecolor="#ffffff"
     bordercolor="#000000"
     borderopacity="0.25"
     inkscape:showpageshadow="2"
     inkscape:pageopacity="0.0"
     inkscape:pagecheckerboard="0"
     inkscape:deskcolor="#d1d1d1"
     inkscape:zoom="34.916667"
     inkscape:cx="11.98568"
     inkscape:cy="12"
     inkscape:window-width="1920"
     inkscape:window-height="1042"
     inkscape:window-x="0"
     inkscape:window-y="0"
     inkscape:window-maximized="1"
     inkscape:current-layer="svg1" />
  <path
     d="M14,3.23V5.29C16.89,6.15 19,8.83 19,12C19,15.17 16.89,17.84 14,18.7V20.77C18,19.86 21,16.28 21,12C21,7.72 18,4.14 14,3.23M16.5,12C16.5,10.23 15.5,8.71 14,7.97V16C15.5,15.29 16.5,13.76 16.5,12M3,9V15H7L12,20V4L7,9H3Z"
     id="path1" />
  <path
     style="fill:#cdd6f4;stroke:#f9f9f9;stroke-width:0.0286396"
     d="M 9.4940334,17.470167 7.0168307,14.99284 H 5.0191552 3.0214797 V 12 9.0071599 h 1.997552 1.9975519 L 9.501132,6.5227347 11.98568,4.0383096 v 7.9545924 c 0,4.375026 -0.0032,7.954592 -0.0072,7.954592 -0.004,0 -1.121963,-1.114797 -2.4844246,-2.477327 z"
     id="path2" />
  <path
     style="fill:#cdd6f4;stroke:#f9f9f9;stroke-width:0.0286396"
     d="m 14.019093,11.98568 c 0,-2.1894986 0.0079,-3.9809067 0.0176,-3.9809067 0.0097,0 0.1195,0.060617 0.244051,0.1347052 0.922676,0.5488475 1.607932,1.3840406 1.955981,2.3839585 0.186402,0.535521 0.227685,0.799177 0.228956,1.462243 8.73e-4,0.455624 -0.01045,0.644606 -0.05057,0.84383 -0.234993,1.166861 -0.902922,2.191988 -1.837535,2.820221 -0.209959,0.141131 -0.509702,0.316856 -0.540479,0.316856 -0.0099,0 -0.01799,-1.791408 -0.01799,-3.980907 z"
     id="path3" />
  <path
     style="fill:#cdd6f4;stroke:#f9f9f9;stroke-width:0.0286396"
     d="m 14.025889,19.731655 0.0075,-1.021839 0.315036,-0.111534 c 0.692005,-0.244994 1.574422,-0.746891 2.130181,-1.211595 0.296332,-0.247782 0.838002,-0.808359 1.067791,-1.105064 0.705686,-0.911186 1.161708,-1.953076 1.374693,-3.140818 C 18.97917,12.816916 18.987,12.681442 18.987,12 c 0,-0.866111 -0.03627,-1.15962 -0.231209,-1.871116 C 18.185877,8.0487233 16.645207,6.3200171 14.634435,5.5045 14.461391,5.4343178 14.252148,5.3549608 14.169451,5.3281511 L 14.019093,5.2794062 V 4.2618967 3.2443871 l 0.07876,0.018726 c 0.04332,0.010299 0.252745,0.070515 0.465394,0.1338122 3.108432,0.925258 5.494984,3.4758659 6.199851,6.6260387 0.144443,0.645544 0.190858,1.044832 0.206514,1.776559 0.02164,1.011603 -0.07814,1.794297 -0.348386,2.732806 -0.842521,2.925872 -3.295449,5.337261 -6.223554,6.118162 -0.153086,0.04083 -0.301057,0.08071 -0.328823,0.08862 -0.04764,0.01358 -0.05006,-0.04311 -0.04296,-1.007453 z"
     id="path4" />
</svg>
