<?xml version="1.0" encoding="UTF-8" standalone="no"?>
<svg
   viewBox="0 0 24 24"
   version="1.1"
   id="svg1"
   sodipodi:docname="volume-down.svg"
   inkscape:version="1.3 (0e150ed6c4, 2023-07-21)"
   xmlns:inkscape="http://www.inkscape.org/namespaces/inkscape"
   xmlns:sodipodi="http://sodipodi.sourceforge.net/DTD/sodipodi-0.dtd"
   xmlns="http://www.w3.org/2000/svg"
   xmlns:svg="http://www.w3.org/2000/svg">
  <defs
     id="defs1" />
  <sodipodi:namedview
     id="namedview1"
     pagecolor="#ffffff"
     bordercolor="#000000"
     borderopacity="0.25"
     inkscape:showpageshadow="2"
     inkscape:pageopacity="0.0"
     inkscape:pagecheckerboard="0"
     inkscape:deskcolor="#d1d1d1"
     inkscape:zoom="34.916667"
     inkscape:cx="11.98568"
     inkscape:cy="12"
     inkscape:window-width="1920"
     inkscape:window-height="1042"
     inkscape:window-x="0"
     inkscape:window-y="0"
     inkscape:window-maximized="1"
     inkscape:current-layer="svg1" />
  <path
     d="M5,9V15H9L14,20V4L9,9M18.5,12C18.5,10.23 17.5,8.71 16,7.97V16C17.5,15.29 18.5,13.76 18.5,12Z"
     id="path1" />
  <path
     style="fill:#cdd6f4;stroke:#f9f9f9;stroke-width:0.0286396"
     d="M 11.498807,17.470167 9.021604,14.99284 H 7.0239284 5.026253 V 12 9.0071599 H 7.023805 9.0213568 L 11.505905,6.5227347 13.990453,4.0383096 v 7.9545924 c 0,4.375026 -0.0033,7.954592 -0.0072,7.954592 -0.004,0 -1.121963,-1.114797 -2.484424,-2.477327 z"
     id="path2" />
  <path
     style="fill:#cdd6f4;stroke:#f9f9f9;stroke-width:0.0286396"
     d="m 16.023866,11.98568 c 0,-2.1894986 0.0065,-3.9809067 0.0145,-3.9809067 0.008,0 0.136332,0.072946 0.285241,0.1621023 1.528054,0.9148932 2.354871,2.6406394 2.120766,4.4264964 -0.177222,1.351925 -0.953697,2.530149 -2.119638,3.216342 -0.146602,0.08628 -0.274271,0.156873 -0.283708,0.156873 -0.0094,0 -0.01716,-1.791408 -0.01716,-3.980907 z"
     id="path3" />
</svg>
