<?xml version="1.0" encoding="UTF-8" standalone="no"?>
<svg
   viewBox="0 0 24 24"
   version="1.1"
   id="svg1"
   sodipodi:docname="volume-dangerous.svg"
   inkscape:version="1.3.1 (91b66b0783, 2023-11-16, custom)"
   xmlns:inkscape="http://www.inkscape.org/namespaces/inkscape"
   xmlns:sodipodi="http://sodipodi.sourceforge.net/DTD/sodipodi-0.dtd"
   xmlns="http://www.w3.org/2000/svg"
   xmlns:svg="http://www.w3.org/2000/svg">
  <defs
     id="defs1" />
  <sodipodi:namedview
     id="namedview1"
     pagecolor="#ffffff"
     bordercolor="#000000"
     borderopacity="0.25"
     inkscape:showpageshadow="2"
     inkscape:pageopacity="0.0"
     inkscape:pagecheckerboard="0"
     inkscape:deskcolor="#d1d1d1"
     inkscape:zoom="34.916667"
     inkscape:cx="15.02148"
     inkscape:cy="12.01432"
     inkscape:window-width="750"
     inkscape:window-height="824"
     inkscape:window-x="836"
     inkscape:window-y="62"
     inkscape:window-maximized="1"
     inkscape:current-layer="svg1" />
  <path
     d="M4 9V15H8L13 20V4L8 9H4M16.55 2.47L15.5 3.53L17.93 6L15 9L17.93 12L15 15L17.93 18L15.5 20.47L16.55 21.53L20 18L17.07 15L20 12L17.07 9L20 6L16.55 2.47Z"
     id="path1" />
  <path
     style="fill:#e3e4e7;stroke:#f9f9f9;stroke-width:0.0286396;fill-opacity:1"
     d="M 10.49642,17.470167 8.0192174,14.99284 H 6.0215418 4.0238663 V 12 9.0071599 h 1.997552 1.9975519 L 10.503519,6.5227347 12.988067,4.0383096 v 7.9545924 c 0,4.375026 -0.0032,7.954592 -0.0072,7.954592 -0.004,0 -1.121963,-1.114797 -2.484425,-2.477327 z"
     id="path2" />
  <path
     style="fill:#e3e4e7;stroke:#f9f9f9;stroke-width:0.0286396;fill-opacity:1"
     d="m 16.033249,20.991507 c -0.265065,-0.27639 -0.481936,-0.513636 -0.481936,-0.527215 0,-0.01358 0.539486,-0.573789 1.198858,-1.244912 l 1.198858,-1.220223 -0.958481,-0.980486 c -0.527164,-0.539267 -1.186226,-1.214637 -1.464582,-1.500823 l -0.506102,-0.520338 1.322667,-1.355557 c 0.727468,-0.745556 1.385494,-1.42079 1.462282,-1.50052 L 17.944427,11.996471 16.482659,10.498953 15.02089,9.0014354 15.526479,8.4816246 c 0.278074,-0.2858958 0.936905,-0.961029 1.464069,-1.5002958 L 17.949029,6.0008434 16.750171,4.7810626 C 16.090799,4.1101831 15.548217,3.5525948 15.544434,3.5419774 15.540651,3.53136 15.762705,3.2906921 16.037887,3.0071599 l 0.500332,-0.5155131 0.72373,0.7322225 c 0.398052,0.4027224 1.173188,1.1921018 1.722525,1.7541764 l 0.998793,1.021954 -0.970154,0.9919131 c -0.533584,0.5455524 -1.192687,1.2210868 -1.464672,1.5011877 l -0.494519,0.5092743 1.462046,1.4970322 1.462047,1.497031 -0.15369,0.159299 c -0.08453,0.08761 -0.742724,0.762599 -1.462655,1.499966 l -1.308966,1.340667 0.495128,0.509902 c 0.27232,0.280446 0.932428,0.957011 1.466907,1.503477 l 0.97178,0.993576 -0.486656,0.492371 c -0.267661,0.270804 -1.038429,1.056213 -1.712819,1.745354 -0.67439,0.689141 -1.236445,1.252983 -1.249012,1.252983 -0.01257,0 -0.239719,-0.226137 -0.504783,-0.502526 z"
     id="path3" />
</svg>
